<svg xmlns="http://www.w3.org/2000/svg" xml:space="preserve" width="128" height="128" viewBox="0 0 24 24">
  <defs>
    <linearGradient id="book-blue-gradient" x1="0" x2="17" y1="0" y2="22" gradientUnits="userSpaceOnUse">
      <stop offset="0" stop-color="#7dd3fc"/>
      <stop offset=".5" stop-color="#3b82f6"/>
      <stop offset="1" stop-color="#1d4ed8"/>
    </linearGradient>
  </defs>
  <path d="m11.515 23.103.67-3.351a.748.748 0 0 1 .205-.383l7.372-7.372a1.7 1.7 0 0 1 2.4 0l1.341 1.341a1.7 1.7 0 0 1 0 2.401l-7.372 7.372a.745.745 0 0 1-.383.205l-3.351.67a.75.75 0 0 1-.882-.883z"/>
  <path fill="url(#book-blue-gradient)" d="M16 4h-1V1c0-.55-.45-1-1-1H3C2.18 0 1.42.34.88.88S0 2.17 0 3v16c0 1.65 1.35 3 3 3h6.69l.53-2.64c.11-.54.38-1.03.76-1.41L17 11.93V5c0-.55-.45-1-1-1zm-3 0H3c-.55 0-1-.45-1-1s.45-1 1-1h10v2z"/>
</svg>
