<svg xmlns="http://www.w3.org/2000/svg" xml:space="preserve" width="128" height="128" viewBox="0 0 24 24">
  <defs>
    <linearGradient id="book-blue-gradient" x1="0" x2="17" y1="0" y2="22" gradientUnits="userSpaceOnUse">
      <stop offset="0" stop-color="#7dd3fc"/>
      <stop offset=".5" stop-color="#3b82f6"/>
      <stop offset="1" stop-color="#1d4ed8"/>
    </linearGradient>
  </defs>
  <g transform="translate(31.2 2.1) scale(-1 1) rotate(-45 17.2 17.2)">
    <rect x="15.25" y="10.5" width="3.9" height="8.3" rx=".85" fill="#f59e0b"/>
    <rect x="15.25" y="9.2" width="3.9" height="1.15" rx=".45" fill="#d1d5db"/>
    <path fill="#f472b6" d="M15.25 7.9c0-.47.38-.85.85-.85h2.2c.47 0 .85.38.85.85v1.3h-3.9z"/>
    <path fill="#fde8c0" d="M15.25 18.8h3.9l-1.95 2.65z"/>
    <path fill="#334155" d="M16.22 20.12h1.96l-.98 1.33z"/>
    <rect x="16.85" y="11.15" width=".7" height="7" rx=".35" fill="#fbbf24" opacity=".65"/>
  </g>
  <path fill="url(#book-blue-gradient)" d="M16 4h-1V1c0-.55-.45-1-1-1H3C2.18 0 1.42.34.88.88S0 2.17 0 3v16c0 1.65 1.35 3 3 3h6.69l.53-2.64c.11-.54.38-1.03.76-1.41L17 11.93V5c0-.55-.45-1-1-1zm-3 0H3c-.55 0-1-.45-1-1s.45-1 1-1h10v2z"/>
</svg>
